# xmcd
#
# Track frame offsets: 
#        150
#        28494
#        58968
#        78507
#        101023
#        119722
#        139208
#        161274
#        177948
#
# Disc length: 2654 seconds
#
# Revision: 3
# Processed by: cddbd v1.5.2PL0 Copyright (c) Steve Scherf et al.
# Submitted via: ExactAudioCopy v0.95b3
#
DISCID=820a5c09
DTITLE=Willie Dixon - I Am the Blues [MFSL] MFCD 872
DYEAR=1970
DGENRE=Blues
TTITLE0=Back Door Man
TTITLE1=I Can't Quit You, Baby
TTITLE2=The Seventh Son
TTITLE3=Spoonful
TTITLE4=I Ain't Superstitious
TTITLE5=You Shook Me
TTITLE6=I'm Your Hoochie Cooche Man
TTITLE7=The Little Red Rooster
TTITLE8=The Same Thing
EXTD=
EXTT0=
EXTT1=
EXTT2=
EXTT3=
EXTT4=
EXTT5=
EXTT6=
EXTT7=
EXTT8=
PLAYORDER=
